<?xml version="1.0" encoding="UTF-8"?> <svg xmlns="http://www.w3.org/2000/svg" xmlns:xlink="http://www.w3.org/1999/xlink" width="138px" height="154px" viewBox="0 0 138 154"><!-- Generator: Sketch 52.6 (67491) - http://www.bohemiancoding.com/sketch --><title>hex-logo</title><desc>Created with Sketch.</desc><defs><linearGradient x1="50%" y1="0%" x2="50%" y2="100%" id="linearGradient-1"><stop stop-color="#F7FBFA" offset="0%"></stop><stop stop-color="#EDF5F4" offset="100%"></stop></linearGradient><linearGradient x1="100%" y1="0%" x2="0%" y2="100%" id="linearGradient-2"><stop stop-color="#58BA52" offset="0%"></stop><stop stop-color="#2F8F83" offset="100%"></stop></linearGradient></defs><g id="Pages" stroke="none" stroke-width="1" fill="none" fill-rule="evenodd"><g id="Home---Approach-v3-" transform="translate(-729.000000, -1227.000000)"><g id="About" transform="translate(344.000000, 1224.000000)"><g id="Group-10"><g id="hex-logo" transform="translate(385.000000, 0.000000)"><path d="M78.9837065,5.82260833 L127.931075,34.2195549 C134.09861,37.797667 137.894737,44.3887182 137.894737,51.5190323 L137.894737,108.480968 C137.894737,115.611282 134.09861,122.202333 127.931075,125.780445 L78.9837065,154.177392 C72.7772423,157.778088 65.1174946,157.778088 58.9110304,154.177392 L9.96366196,125.780445 C3.79612657,122.202333 7.78742582e-14,115.611282 6.75015599e-14,108.480968 L1.42108547e-14,51.5190323 C1.33376431e-14,44.3887182 3.79612657,37.797667 9.96366196,34.2195549 L58.9110304,5.82260833 C65.1174946,2.22191155 72.7772423,2.22191155 78.9837065,5.82260833 Z" id="Ornament-1-Line-Copy-2" fill="url(#linearGradient-1)"></path><g id="white-logo-footer" transform="translate(34.000000, 31.000000)" fill="url(#linearGradient-2)" fill-rule="nonzero"><g id="Asset-1-Copy"><path d="M54.2298311,73.5699217 L54.2298311,73.5699217 C57.1758881,68.4719992 57.9738891,62.4129168 56.448133,56.7267432 C54.9223768,51.0405696 51.1979643,46.1935294 46.0949242,43.252828 L46.0949242,43.252828 C42.7164868,41.3075829 38.8851659,40.2855127 34.9861513,40.2893731 L30.9057305,40.2893731 C30.4358218,40.2901197 29.9852533,40.4764508 29.6522114,40.8077617 L29.6522114,40.8077617 C29.1476882,41.3165624 28.9975413,42.0780597 29.2712029,42.7401149 C29.5448645,43.40217 30.1889954,43.8357423 30.9057305,43.8403351 L34.9947963,43.8403351 C45.2922214,43.8451062 53.6365102,52.1908706 53.633328,62.4821627 C53.6301457,72.7734548 45.2806971,81.1140634 34.983271,81.1124738 C24.685845,81.1108841 16.3389749,72.7676981 16.3389738,62.4764055 L16.3389738,62.2949695 L16.3389738,10.6461845 L16.3389738,10.4647485 L16.3389738,6.37811833 C16.3440615,5.90734467 16.1567228,5.45487918 15.8202763,5.12534586 L15.8202763,5.12534586 C15.4878909,4.79296081 15.0369609,4.60621222 14.5667572,4.60621222 C14.0965534,4.60621222 13.6456234,4.79296081 13.313238,5.12534586 L13.313238,5.12534586 C12.9767915,5.45487918 12.7894528,5.90734467 12.7945405,6.37811833 L12.7945405,12.4259854 C12.7945405,13.2501362 12.3545993,14.0116829 11.6404384,14.4237582 C10.9262775,14.8358336 10.0463951,14.8358336 9.3322342,14.4237582 C8.61807333,14.0116829 8.17813211,13.2501362 8.17813213,12.4259854 L8.17813213,6.37811833 C8.1810549,4.68834204 8.85591526,3.06902029 10.0540883,1.87677725 L10.0540883,1.87677725 C11.24841,0.675935303 12.8726069,0.0006980722 14.5667572,0.0006980722 C16.2609074,0.0006980722 17.8851043,0.675935303 19.079426,1.87677725 L19.079426,1.87677725 C20.282891,3.06971342 20.9611114,4.69274175 20.9640271,6.38675814 L20.9640271,10.4733883 L20.9640271,10.6548243 L20.9640271,62.2949695 L20.9640271,62.4764055 C20.9640282,68.1522222 24.3855578,73.2689985 29.6327887,75.4402315 C34.8800196,77.6114645 40.9192997,76.4094429 44.9338631,72.3947986 C48.9484266,68.3801543 50.1474445,62.3437323 47.9716858,57.1009652 C45.7959271,51.8581981 40.6739947,48.4418589 34.9947963,48.4453539 L30.9057305,48.4453539 C28.3209381,48.4449923 25.9910514,46.8880629 25.0030857,44.5009556 C24.01512,42.1138483 24.5637701,39.3669813 26.3930617,37.5419135 L26.3930617,37.5419135 C27.585474,36.3436484 29.2061111,35.6690442 30.8970855,35.6670747 L34.9861513,35.6670747 C39.7005394,35.6669289 44.3315466,36.9096718 48.4117734,39.2698755 L48.4117734,39.2698755 C54.5716168,42.8226256 59.0658181,48.6767085 60.9045751,55.5428221 C62.7433321,62.4089357 61.7758322,69.7239297 58.2151574,75.876751 L58.2151574,75.876751 L56.1922369,79.4104334 C55.7561162,80.2513315 56.0553536,81.2862819 56.8730449,81.7650946 C57.6907362,82.2439072 58.7404072,81.9988323 59.2611975,81.2075139 L61.2927629,77.6911112 L61.2927629,77.6911112 L61.2927629,77.6911112 C65.3292686,70.7096012 66.4219866,62.4103887 64.3300403,54.6229355 C62.238094,46.8354822 57.133234,40.1991446 50.1407652,36.1768235 L50.1407652,36.1768235 C43.1652432,32.139785 34.8662513,31.0513272 27.0846584,33.1528899 C25.8894844,33.3789537 24.7238812,32.6392598 24.420277,31.4620686 C24.1166729,30.2848775 24.779275,29.0742408 25.9348788,28.6947479 C34.8893629,26.2731084 44.4402552,27.5167831 52.4749043,32.150672 L52.4749043,32.150672 C69.217579,41.7952409 74.9687557,63.1771843 65.321314,79.9115424 L65.321314,79.9633812 L65.321314,79.9633812 L63.2811036,83.4970636 C61.4760782,86.4634869 57.6300866,87.4447546 54.6231626,85.7060538 C51.6162387,83.967353 50.5505825,80.1460115 52.2242005,77.1036041 L54.2644109,73.5699217 L54.2298311,73.5699217 Z M34.9947963,84.6634379 C36.2695823,84.6634379 37.3030005,85.6962406 37.3030005,86.9702673 C37.3030005,88.2442939 36.2695823,89.2770966 34.9947963,89.2770966 C30.2958544,89.2722825 25.6807729,88.0327926 21.6123991,85.6829355 L21.6123991,85.6829355 C13.300469,80.9074955 8.17431038,72.0581959 8.16948717,62.4764055 L8.16948717,62.4764055 L8.16948717,23.4071841 C8.17457485,22.9364104 7.98723616,22.483945 7.6507896,22.1544116 L7.6507896,22.1544116 C7.14477076,21.6413153 6.37819885,21.4856619 5.71195178,21.7607282 C5.04570472,22.0357946 4.61255222,22.6867654 4.61640884,23.4071841 L4.61640884,62.4764055 L4.61640884,62.4764055 C4.60746783,67.8015241 5.99655696,73.0358071 8.64495994,77.6565519 L8.64495994,77.6565519 C17.0344827,92.1749224 35.6089635,97.1522386 50.1407652,88.7759876 C50.8526752,88.3639122 51.7304778,88.3627121 52.4435132,88.7728393 C53.1565486,89.1829665 53.5964898,89.942113 53.5976153,90.7643155 C53.5987407,91.5865181 53.1608794,92.3468647 52.4489694,92.75894 C35.7243426,102.38948 14.3552355,96.6637742 4.69421347,79.9633812 L4.69421347,79.9633812 C1.61809466,74.6483315 -0.00108834365,68.6165187 4.97017312e-07,62.4764055 L4.97017312e-07,62.4764055 L4.97017312e-07,23.4071841 C0.0029232706,21.7174078 0.677783635,20.0980861 1.8759567,18.905843 L1.8759567,18.905843 C3.07027837,17.7050011 4.69447528,17.0297638 6.38862552,17.0297638 C8.08277576,17.0297638 9.70697267,17.7050011 10.9012943,18.905843 L10.9012943,18.905843 C12.1039521,20.0993223 12.7820258,21.7219996 12.7858955,23.4158239 L12.7858955,62.4764055 L12.7858955,62.4764055 C12.7737139,70.4086901 17.0078918,77.7415828 23.8860234,81.6999831 L23.8860234,81.6999831 C27.2644609,83.6452281 31.0957817,84.6672984 34.9947963,84.6634379 L34.9947963,84.6634379 Z" id="Shape"></path></g></g></g></g></g></g></g></svg> 